# xmcd
#
# Track frame offsets:
#	150
#	14400
#	27525
#	42825
#	60675
#	75975
#	92550
#	108750
#	120825
#	138825
#	150750
#	165000
#	178125
#	193425
#	211275
#	226575
#	243150
#	259350
#	271425
#	289425
#
# Disc length: 4018 seconds
#
# Revision: 1
# Processed by: cddbd v1.5.1PL2 Copyright (c) Steve Scherf et al.
# Submitted via: audiograbber 1.83.01
#
DISCID=000fb014
DTITLE=Country Hit List - Chl9804
DYEAR=1900
DGENRE=Karaoke
TTITLE0=Martina Mcbride (Vocal) - Valentine
TTITLE1=Trisha Yearwood (Vocal) - Perfect Love
TTITLE2=Shania Twain (Vocal) - You're Still The One
TTITLE3=Patty Loveless (Vocal) - To Have You Back Again
TTITLE4=Jo Dee Messina (Vocal) - Bye Bye
TTITLE5=Deana Carter (Vocal) - Before We Ever Said Goodbye
TTITLE6=Mindy Mccready (Vocal) - You'll Never Know
TTITLE7=Sherrie Austin (Vocal) - Put Your Heart Into It
TTITLE8=Mila Mason (Vocal) - Closer To Heaven
TTITLE9=Chely Wright (Vocal) - Just Another Heartache
TTITLE10=Martina Mcbride - Valentine
TTITLE11=Trisha Yearwood - Perfect Love
TTITLE12=Shania Twain - You're Still The One
TTITLE13=Patty Loveless - To Have You Back Again
TTITLE14=Jo Dee Messina - Bye Bye
TTITLE15=Deana Carter - Before We Ever Said Goodbye
TTITLE16=Mindy Mccready - You'll Never Know
TTITLE17=Sherrie Austin - Put Your Heart Into It
TTITLE18=Mila Mason - Closer To Heaven
TTITLE19=Chely Wright - Just Another Heartache
EXTD=
EXTT0=
EXTT1=
EXTT2=
EXTT3=
EXTT4=
EXTT5=
EXTT6=
EXTT7=
EXTT8=
EXTT9=
EXTT10=
EXTT11=
EXTT12=
EXTT13=
EXTT14=
EXTT15=
EXTT16=
EXTT17=
EXTT18=
EXTT19=
PLAYORDER=
